<svg xmlns="http://www.w3.org/2000/svg" viewBox="0 0 900 1200">
  <defs>
    <linearGradient id="sky" x1="0" y1="0" x2="0" y2="1">
      <stop offset="0" stop-color="#06121c"/>
      <stop offset=".48" stop-color="#111827"/>
      <stop offset="1" stop-color="#0a060d"/>
    </linearGradient>
    <filter id="blur"><feGaussianBlur stdDeviation="4"/></filter>
  </defs>
  <rect width="900" height="1200" fill="url(#sky)"/>
  <g opacity=".72">
    <rect x="54" y="250" width="140" height="780" fill="#111821"/>
    <rect x="224" y="170" width="105" height="900" fill="#0d151e"/>
    <rect x="366" y="330" width="156" height="700" fill="#151622"/>
    <rect x="560" y="120" width="120" height="960" fill="#0f1823"/>
    <rect x="716" y="270" width="126" height="760" fill="#14131d"/>
  </g>
  <g fill="#0de7f3" opacity=".65">
    <rect x="88" y="310" width="48" height="9"/><rect x="248" y="222" width="44" height="9"/><rect x="404" y="390" width="68" height="9"/><rect x="592" y="188" width="42" height="9"/>
    <rect x="88" y="460" width="70" height="9"/><rect x="248" y="540" width="36" height="9"/><rect x="404" y="590" width="74" height="9"/><rect x="592" y="690" width="62" height="9"/>
  </g>
  <g fill="#ff5eb7" opacity=".86" filter="url(#blur)">
    <rect x="720" y="170" width="64" height="250"/>
    <rect x="74" y="820" width="90" height="260"/>
    <rect x="602" y="850" width="162" height="160"/>
  </g>
  <path d="M0 965c160-70 306-80 452-32 163 54 284 39 448-50v317H0z" fill="#09090f" opacity=".78"/>
</svg>
