<svg xmlns="http://www.w3.org/2000/svg" viewBox="0 0 900 1200">
  <defs>
    <linearGradient id="bg" x1="0" y1="0" x2="1" y2="1">
      <stop offset="0" stop-color="#05151b"/>
      <stop offset=".5" stop-color="#10222a"/>
      <stop offset="1" stop-color="#130817"/>
    </linearGradient>
    <filter id="glow"><feGaussianBlur stdDeviation="6" result="b"/><feMerge><feMergeNode in="b"/><feMergeNode in="SourceGraphic"/></feMerge></filter>
  </defs>
  <rect width="900" height="1200" fill="url(#bg)"/>
  <g opacity=".55" stroke="#0de7f3" stroke-width="4">
    <path d="M120 180h650v86H120zM95 350h710v86H95zM148 520h598v86H148zM100 690h710v86H100z"/>
    <path d="M190 180v596M450 180v596M710 180v596" opacity=".35"/>
  </g>
  <g filter="url(#glow)">
    <path d="M450 355c126 0 228 102 228 228S576 811 450 811 222 709 222 583s102-228 228-228z" fill="#10131a" stroke="#ff5eb7" stroke-width="8"/>
    <path d="M450 410c96 0 174 78 174 174s-78 174-174 174-174-78-174-174 78-174 174-174z" fill="none" stroke="#0de7f3" stroke-width="12"/>
    <path d="M295 582h310M450 426v314M340 475l220 220M560 475 340 695" stroke="#ff5eb7" stroke-width="10" stroke-linecap="round"/>
    <circle cx="450" cy="584" r="54" fill="#0de7f3"/>
    <circle cx="450" cy="584" r="24" fill="#081017"/>
  </g>
  <g fill="#ff5eb7" opacity=".8">
    <rect x="88" y="1018" width="128" height="18"/>
    <rect x="88" y="1054" width="242" height="18"/>
    <rect x="594" y="1018" width="218" height="18"/>
  </g>
</svg>
