<svg xmlns="http://www.w3.org/2000/svg" viewBox="0 0 720 1080" role="img" aria-label="Dark werewolf drama poster">
  <defs>
    <linearGradient id="bg" x1="0" x2="1" y1="0" y2="1">
      <stop offset="0" stop-color="#151014"/>
      <stop offset=".48" stop-color="#40141d"/>
      <stop offset="1" stop-color="#06191d"/>
    </linearGradient>
    <radialGradient id="moon" cx=".5" cy=".2" r=".24">
      <stop offset="0" stop-color="#f4f0dc"/>
      <stop offset=".56" stop-color="#bfd9d2"/>
      <stop offset="1" stop-color="#bfd9d2" stop-opacity="0"/>
    </radialGradient>
    <filter id="glow" x="-30%" y="-30%" width="160%" height="160%">
      <feGaussianBlur stdDeviation="9" result="blur"/>
      <feMerge>
        <feMergeNode in="blur"/>
        <feMergeNode in="SourceGraphic"/>
      </feMerge>
    </filter>
  </defs>
  <rect width="720" height="1080" fill="url(#bg)"/>
  <rect width="720" height="1080" fill="url(#moon)"/>
  <path d="M0 726c104-52 196-64 276-36 98 34 162 26 244-24 58-36 126-48 200-36v450H0z" fill="#08090d" opacity=".74"/>
  <path d="M118 874c62-180 154-292 276-336 120 45 204 156 252 334-84-52-156-77-216-76-24 0-49 11-74 33-24-22-49-33-74-33-54 0-109 26-164 78z" fill="#0b0b10"/>
  <path d="M228 518l74-164 54 142 60-142 78 164-88-42-50 46-46-46z" fill="#141018"/>
  <path d="M251 621c18-50 52-76 102-78 56 1 95 28 116 82-42-22-78-32-108-30-34 1-70 10-110 26z" fill="#22141d"/>
  <path d="M274 636c22 39 51 60 86 62 38-3 68-24 91-62-48 14-106 14-177 0z" fill="#09090f"/>
  <path d="M287 573l71 30-79 6zM431 573l-71 30 79 6z" fill="#f0454f" filter="url(#glow)"/>
  <path d="M96 216c68 34 118 71 150 112M624 218c-70 33-121 70-154 110" fill="none" stroke="#ec5cab" stroke-width="12" stroke-linecap="round" opacity=".42"/>
  <path d="M132 950h456" stroke="#0de7f3" stroke-width="8" stroke-linecap="round" opacity=".65"/>
  <text x="360" y="884" fill="#fff6fb" font-family="Arial, sans-serif" font-size="54" font-weight="900" text-anchor="middle">暗巷协议</text>
  <text x="360" y="928" fill="#ff7ac7" font-family="Arial, sans-serif" font-size="24" font-weight="700" text-anchor="middle">投票决定剧情走向</text>
</svg>
